<svg width="40" height="40" viewBox="0 0 40 40" fill="none" xmlns="http://www.w3.org/2000/svg">
<rect width="40" height="40" rx="20" fill="#F5F6FA"/>
<path d="M28.2193 24.62C28.2193 25.47 27.5293 26.16 26.6793 26.16H13.3193C12.4693 26.16 11.7793 25.47 11.7793 24.62C11.7793 23.77 12.4693 23.08 13.3193 23.08H13.8293V17.94C13.8293 14.54 16.5893 11.77 19.9993 11.77C21.6993 11.77 23.2393 12.46 24.3593 13.58C25.4793 14.69 26.1693 16.23 26.1693 17.94V23.08H26.6793C27.5293 23.08 28.2193 23.77 28.2193 24.62Z" stroke="#082552" stroke-width="1.5" stroke-linecap="round" stroke-linejoin="round"/>
<path d="M20 11.78V10.75" stroke="#082552" stroke-width="1.5" stroke-linecap="round" stroke-linejoin="round"/>
<path d="M23.0799 26.1699C23.0799 27.8799 21.6999 29.2499 19.9999 29.2499C18.2999 29.2499 16.9199 27.8699 16.9199 26.1699H23.0799Z" stroke="#082552" stroke-width="1.5" stroke-linecap="round" stroke-linejoin="round"/>
</svg>
