<svg width="32" height="32" viewBox="0 0 32 32" fill="none" xmlns="http://www.w3.org/2000/svg">
<g clip-path="url(#clip0_1446_2124)">
<rect width="32" height="32" rx="16" fill="#E2E8F0"/>
<path d="M26.4507 22.1045C28.8449 24.1575 29.6499 27.1703 28.5969 29.3596C27.8743 30.8606 26.4772 31.5616 25.8596 31.8234L19.8358 30.3704L21.3526 24.4879L26.4507 22.1045Z" fill="black"/>
<path d="M10.1124 14.7363C8.35348 20.31 5.87498 22.5621 3.83766 23.5601C2.66116 24.1366 1.16601 24.5229 -0.139909 26.018C-1.54976 27.6328 -1.94095 29.626 -2.04389 31.0917L12.335 29.9035L15.3086 15.7256L10.1124 14.7363Z" fill="black"/>
<path d="M22.985 10.1407L18.6214 9.30827C16.6705 8.93612 14.6517 9.3542 13.0091 10.4705C11.3664 11.5869 10.2346 13.31 9.8624 15.2609L9.51169 17.0994L27.0566 20.4462L27.6996 17.0756C27.9938 15.5308 27.6624 13.9324 26.7783 12.6319C25.8941 11.3314 24.5297 10.4353 22.985 10.1407Z" fill="black"/>
<path d="M11.9676 20.5994C12.0203 19.9819 12.3145 19.4102 12.7863 19.0084C13.258 18.6066 13.8693 18.4071 14.4872 18.4532L15.0853 15.3051C15.4775 13.1972 17.4795 11.8099 19.5462 12.207L25.2846 13.3109C26.8405 13.6109 27.8582 15.1404 27.5592 16.7277L26.2258 23.8005C25.7513 26.3123 23.3718 27.9653 20.911 27.4917L20.6453 27.4408L19.905 31.3624L12.3244 29.9036L13.1999 25.2603H13.2078L13.6107 23.1034C13.0903 22.9392 12.6426 22.6003 12.3432 22.144C12.0438 21.6878 11.9111 21.1422 11.9676 20.5994Z" fill="white"/>
<path d="M20.0627 31.5911L20.8019 27.6695L20.8745 27.6832C21.4792 27.8004 22.1012 27.7962 22.7043 27.6708C23.3074 27.5454 23.8795 27.3013 24.3873 26.9528C24.9155 26.5937 25.3671 26.1333 25.7158 25.5982C26.0646 25.0632 26.3035 24.4642 26.4188 23.836L27.7531 16.7633C28.0718 15.073 26.9855 13.4377 25.3187 13.119L19.5794 12.0151C19.0678 11.916 18.5417 11.9196 18.0315 12.0256C17.5214 12.1317 17.0374 12.338 16.6077 12.6327C16.1608 12.9363 15.7787 13.3257 15.4836 13.7783C15.1886 14.2309 14.9865 14.7377 14.889 15.2691L14.3233 18.2496H14.2949C13.6601 18.2573 13.0506 18.4998 12.5841 18.9303C12.1175 19.3608 11.8269 19.9489 11.7683 20.581C11.7123 21.1387 11.8397 21.6994 12.1313 22.1781C12.4229 22.6567 12.8628 23.0271 13.3841 23.2331L13.0458 25.04L13.0046 25.2233L12.0929 30.0587L20.0627 31.5911ZM20.4892 27.2116L19.7499 31.1333L12.5546 29.7499L13.3576 25.489L13.4007 25.2929L13.837 22.9625L13.6684 22.9115C13.1927 22.7599 12.7836 22.4495 12.5096 22.0322C12.2356 21.6148 12.1134 21.116 12.1634 20.6192C12.2772 19.4369 13.3145 18.5525 14.4723 18.6496L14.6478 18.6643L15.2782 15.3436C15.3662 14.8628 15.5489 14.4044 15.8157 13.9949C16.0825 13.5853 16.428 13.233 16.8322 12.9582C17.2192 12.6923 17.6553 12.5061 18.115 12.4105C18.5747 12.3149 19.0488 12.3118 19.5097 12.4014L25.2482 13.5053C26.6962 13.7837 27.6463 15.2132 27.3678 16.6927L26.0335 23.7654C25.9283 24.3426 25.7095 24.893 25.3897 25.3849C25.0699 25.8767 24.6555 26.3 24.1707 26.6302C23.7054 26.9497 23.1812 27.1735 22.6286 27.2886C22.0761 27.4038 21.5061 27.4079 20.9519 27.3008L20.4892 27.2116Z" fill="black"/>
<path d="M14.2358 21.7699C14.3893 21.7698 14.5394 21.7251 14.6679 21.6413C14.7964 21.5575 14.8978 21.4382 14.9598 21.2978C15.0218 21.1575 15.0417 21.0021 15.0171 20.8507C14.9925 20.6992 14.9244 20.5582 14.8212 20.4447C14.7179 20.3312 14.584 20.2501 14.4355 20.2113C14.2871 20.1725 14.1305 20.1776 13.985 20.2261C13.8394 20.2746 13.711 20.3642 13.6154 20.4843C13.5199 20.6043 13.4612 20.7495 13.4466 20.9022C13.4266 21.1111 13.4904 21.3194 13.6238 21.4813C13.7573 21.6433 13.9495 21.7456 14.1584 21.766C14.1841 21.7687 14.21 21.77 14.2358 21.7699ZM14.2358 20.5777H14.275C14.3274 20.5827 14.3783 20.598 14.4247 20.6228C14.4712 20.6475 14.5123 20.6812 14.5456 20.7218C14.5962 20.7828 14.6276 20.8574 14.6356 20.9362C14.6437 21.015 14.6281 21.0944 14.5909 21.1643C14.5537 21.2342 14.4965 21.2915 14.4266 21.3288C14.3568 21.3661 14.2774 21.3818 14.1986 21.3738C14.093 21.3636 13.9958 21.312 13.9283 21.2302C13.8609 21.1483 13.8287 21.0431 13.8388 20.9375C13.8494 20.8319 13.9011 20.7347 13.9829 20.6669C14.0538 20.6093 14.1424 20.5777 14.2339 20.5777H14.2358Z" fill="black"/>
<path d="M20.6602 27.2535L16.0806 26.2368C16.0514 26.2304 16.0209 26.2346 15.9945 26.2486C15.968 26.2625 15.9474 26.2854 15.9362 26.3131C15.9251 26.3409 15.9241 26.3717 15.9335 26.4C15.9428 26.4284 15.962 26.4526 15.9875 26.4682L20.3866 28.6104L20.6602 27.2535Z" fill="black"/>
<path d="M14.7768 21.4209C14.8187 21.4209 14.8595 21.4074 14.8932 21.3825C14.9269 21.3577 14.9517 21.3227 14.9641 21.2826C15.0361 21.0462 15.0448 20.7951 14.9894 20.5542C14.934 20.3133 14.8164 20.0912 14.6484 19.91C14.1454 19.3738 13.4532 19.4767 13.3738 19.4904C13.3484 19.4948 13.324 19.5041 13.3022 19.5179C13.2803 19.5317 13.2614 19.5496 13.2465 19.5707C13.2317 19.5918 13.2211 19.6156 13.2155 19.6408C13.2098 19.666 13.2092 19.6921 13.2136 19.7175C13.2181 19.743 13.2275 19.7673 13.2414 19.7891C13.2553 19.8108 13.2733 19.8297 13.2945 19.8444C13.3157 19.8592 13.3395 19.8697 13.3648 19.8752C13.39 19.8808 13.416 19.8813 13.4415 19.8767C13.464 19.8767 13.9905 19.7855 14.3591 20.1787C14.4805 20.3093 14.5654 20.4696 14.6053 20.6434C14.6452 20.8172 14.6387 20.9984 14.5866 21.1689C14.579 21.1936 14.5764 21.2195 14.5789 21.2451C14.5813 21.2708 14.5888 21.2957 14.6009 21.3185C14.613 21.3413 14.6295 21.3614 14.6494 21.3778C14.6694 21.3942 14.6923 21.4065 14.717 21.414C14.7364 21.4195 14.7566 21.4218 14.7768 21.4209Z" fill="black"/>
<path d="M25.2423 21.4563C24.9889 21.4563 24.7835 21.2508 24.7835 20.9974C24.7835 20.744 24.9889 20.5386 25.2423 20.5386C25.4957 20.5386 25.7012 20.744 25.7012 20.9974C25.7012 21.2508 25.4957 21.4563 25.2423 21.4563Z" fill="black"/>
<path d="M20.7228 20.5202C20.4694 20.5202 20.264 20.3148 20.264 20.0614C20.264 19.808 20.4694 19.6025 20.7228 19.6025C20.9762 19.6025 21.1816 19.808 21.1816 20.0614C21.1816 20.3148 20.9762 20.5202 20.7228 20.5202Z" fill="black"/>
<path d="M23.1089 22.6073H23.1373C23.4824 22.5573 23.8412 22.4711 23.8912 22.1975C23.898 22.1456 23.8943 22.0927 23.8803 22.0422C23.8664 21.9917 23.8424 21.9445 23.8099 21.9034C23.7912 21.874 23.7697 21.8387 23.7461 21.7926C23.6598 21.6191 23.6257 21.4243 23.6481 21.2318L23.8471 19.2465C23.8497 19.2207 23.8472 19.1947 23.8397 19.1699C23.8322 19.1452 23.8199 19.1221 23.8036 19.1021C23.7872 19.082 23.767 19.0654 23.7442 19.0532C23.7214 19.041 23.6964 19.0333 23.6706 19.0308C23.6449 19.0282 23.6189 19.0307 23.5941 19.0382C23.5693 19.0457 23.5463 19.0579 23.5262 19.0743C23.5062 19.0907 23.4896 19.1109 23.4774 19.1337C23.4651 19.1565 23.4575 19.1815 23.4549 19.2072L23.2589 21.1955C23.2286 21.461 23.2756 21.7296 23.3942 21.9691C23.4265 22.0318 23.454 22.076 23.4765 22.1132V22.1201C23.3489 22.1719 23.2145 22.2049 23.0775 22.2181C23.0255 22.2218 22.9771 22.2459 22.9429 22.2853C22.9087 22.3246 22.8915 22.3759 22.8951 22.4279C22.8988 22.4799 22.9229 22.5284 22.9623 22.5626C23.0016 22.5968 23.0529 22.6139 23.1049 22.6103L23.1089 22.6073Z" fill="black"/>
<path d="M22.3284 24.5405C22.5625 24.539 22.7947 24.4972 23.0147 24.417C23.0633 24.3975 23.1022 24.3595 23.1228 24.3113C23.1434 24.2631 23.144 24.2088 23.1245 24.1601C23.105 24.1115 23.067 24.0726 23.0188 24.052C22.9706 24.0314 22.9162 24.0308 22.8676 24.0503C22.8598 24.0503 22.3323 24.2572 21.8872 24.0631C21.766 24.0053 21.658 23.9233 21.5698 23.8222C21.4816 23.721 21.4151 23.6027 21.3744 23.4748C21.3652 23.4507 21.3514 23.4287 21.3336 23.41C21.3159 23.3913 21.2947 23.3762 21.2712 23.3657C21.2476 23.3552 21.2222 23.3494 21.1965 23.3487C21.1707 23.348 21.1451 23.3524 21.121 23.3616C21.0969 23.3708 21.0749 23.3846 21.0562 23.4024C21.0374 23.4201 21.0224 23.4413 21.0119 23.4648C21.0014 23.4884 20.9956 23.5138 20.9949 23.5395C20.9942 23.5653 20.9985 23.5909 21.0077 23.615C21.0673 23.7914 21.1622 23.9537 21.2869 24.0919C21.4115 24.2302 21.563 24.3415 21.7323 24.419C21.9204 24.5003 22.1234 24.5417 22.3284 24.5405Z" fill="black"/>
<path d="M31.8813 61.1595L21.3545 61.433L-1.22555 62.0213C0.908497 50.9151 3.04255 39.8092 5.1766 28.7036C11.2418 29.0886 17.2778 29.8446 23.2507 30.9674C23.3762 30.9909 23.9252 31.0655 24.6546 31.2057C26.9733 31.6664 30.4489 32.3567 32.1519 34.2646C33.7275 36.0293 33.5922 38.6167 33.4627 40.5951C33.0568 46.7963 32.5568 53.6348 31.8813 61.1595Z" fill="#6DC8C2"/>
<path d="M10.3483 12.5885C8.25285 12.5885 6.55411 10.8897 6.55411 8.79423C6.55411 6.69873 8.25285 5 10.3483 5C12.4438 5 14.1426 6.69873 14.1426 8.79423C14.1426 10.8897 12.4438 12.5885 10.3483 12.5885Z" fill="black"/>
<path d="M-9.85346 62.9036L3.67636 66.489L12.2129 29.6173L5.55386 28.6584C3.00795 28.2926 0.419219 28.9258 -1.67045 30.4254C-3.76012 31.925 -5.18874 34.1747 -5.65726 36.7038L-9.85346 62.9036Z" fill="#6DC8C2"/>
<path d="M11.6127 31.5997L20.3179 32.9723L20.9915 29.3193C21.0216 29.1569 20.9862 28.9893 20.8931 28.853C20.7999 28.7166 20.6566 28.6227 20.4944 28.5918L13.3177 27.2192C13.1608 27.1891 12.9983 27.2202 12.8636 27.306C12.7289 27.3919 12.6321 27.5261 12.5932 27.681L11.6127 31.5997Z" fill="#6DC8C2"/>
<path d="M17.9411 30.9457C17.9885 30.9462 18.0345 30.9295 18.0706 30.8987C18.1067 30.8678 18.1303 30.825 18.1372 30.7781L18.4901 28.3643C18.4977 28.3123 18.4843 28.2594 18.4528 28.2173C18.4214 28.1752 18.3745 28.1473 18.3225 28.1397C18.2705 28.1322 18.2176 28.1456 18.1755 28.1771C18.1334 28.2085 18.1055 28.2554 18.098 28.3074L17.746 30.7173C17.7423 30.7428 17.7436 30.7688 17.7499 30.7937C17.7562 30.8187 17.7673 30.8422 17.7827 30.8629C17.7981 30.8836 17.8174 30.901 17.8395 30.9142C17.8617 30.9274 17.8862 30.9361 17.9117 30.9398L17.9411 30.9457Z" fill="black"/>
<path d="M15.2448 30.4291C15.2922 30.4296 15.3382 30.4129 15.3743 30.3821C15.4103 30.3512 15.434 30.3084 15.4409 30.2615L15.7968 27.8477C15.8005 27.8219 15.7991 27.7957 15.7927 27.7705C15.7863 27.7452 15.775 27.7215 15.7594 27.7007C15.7439 27.6798 15.7244 27.6623 15.702 27.649C15.6796 27.6356 15.6549 27.6269 15.6291 27.6231C15.6034 27.6194 15.5771 27.6208 15.5519 27.6272C15.5267 27.6336 15.503 27.6449 15.4821 27.6605C15.4613 27.676 15.4437 27.6956 15.4304 27.7179C15.4171 27.7403 15.4083 27.765 15.4046 27.7908L15.0487 30.2046C15.0456 30.2302 15.0475 30.2561 15.0543 30.2809C15.0612 30.3057 15.0729 30.3289 15.0887 30.3492C15.1046 30.3695 15.1243 30.3865 15.1467 30.3992C15.1691 30.4119 15.1938 30.4201 15.2193 30.4232L15.2448 30.4291Z" fill="black"/>
<path d="M12.6322 18.3161L16.6392 19.1005C17.4028 19.1444 18.1527 18.8831 18.7238 18.3742C19.2948 17.8653 19.6404 17.1503 19.6844 16.3866L19.7402 15.4229L13.6381 14.1729L12.6322 18.3161Z" fill="black"/>
<path d="M26.9785 13.627L13.54 11.0634L12.7429 15.2421L22.0027 17.0085C23.1109 17.2199 24.2578 16.9824 25.1909 16.3483C26.1241 15.7141 26.7671 14.7352 26.9785 13.627Z" fill="black"/>
</g>
<defs>
<clipPath id="clip0_1446_2124">
<rect width="32" height="32" rx="16" fill="white"/>
</clipPath>
</defs>
</svg>
